<?xml version="1.0" encoding="utf-8"?>
<!-- Generator: Adobe Illustrator 26.0.3, SVG Export Plug-In . SVG Version: 6.00 Build 0)  -->
<svg version="1.1" id="Layer_1" xmlns="http://www.w3.org/2000/svg" xmlns:xlink="http://www.w3.org/1999/xlink" x="0px" y="0px"
	 viewBox="0 0 24 24" style="enable-background:new 0 0 24 24;" xml:space="preserve">
<style type="text/css">
	.st0{fill:#FFFFFF;stroke:#000000;stroke-width:2;stroke-miterlimit:10;}
	.st1{fill:none;}
</style>
<polygon class="st0" points="15.1,18.6 13.3,15.4 17,15.4 20.7,15.3 18.9,18.6 17,21.8 "/>
<circle class="st0" cx="7.1" cy="19.1" r="3.7"/>
<polygon class="st1" points="16,13 8,13 8,15 11,15 13,15 16,15 "/>
<path class="st1" d="M0,0v24h24V0H0z M21,15v7h-8v-7h-2v7H3v-7h3v-4h10V9h-3V2h8v7h-3v6H21h2.4H21z"/>
<rect x="15" y="4" class="st1" width="4" height="3"/>
<path d="M8,13h8v2h2V9h3V2h-8v7h3v2H6v4h2V13z M15,7V4h4v3H15z"/>
</svg>
