<?xml version="1.0" encoding="utf-8"?>
<!-- Generator: Adobe Illustrator 26.0.3, SVG Export Plug-In . SVG Version: 6.00 Build 0)  -->
<svg version="1.1" id="Layer_1" xmlns="http://www.w3.org/2000/svg" xmlns:xlink="http://www.w3.org/1999/xlink" x="0px" y="0px"
	 viewBox="0 0 24 24" style="enable-background:new 0 0 24 24;" xml:space="preserve">
<style type="text/css">
	.st0{fill:none;}
</style>
<g>
	<rect class="st0" width="24" height="24"/>
</g>
<g>
	<g>
		<path d="M12.8,4.6l-0.6-2.7C12,1.4,11.5,1,11,1H2.5c-0.6,0-1,0.4-1.2,0.9L0.7,4.6C0.5,5.2,0.7,5.8,1,6.3c0,0.1,0.1,0.1,0.2,0.2
			v4.3c0,0.7,0.6,1.2,1.2,1.2H11c0.7,0,1.2-0.6,1.2-1.2V6.5c0.1-0.1,0.1-0.1,0.2-0.2C12.8,5.8,13,5.2,12.8,4.6z M11,2.2l0.6,2.7
			c0.1,0.3,0,0.5-0.2,0.7c-0.1,0.1-0.3,0.3-0.6,0.3c-0.4,0-0.7-0.3-0.7-0.7l-0.4-3L11,2.2z M7.3,2.2h1.2L8.9,5c0,0.2,0,0.5-0.2,0.7
			C8.5,5.8,8.3,5.9,8.1,5.9c-0.4,0-0.7-0.4-0.7-0.8V2.2z M4.6,5l0.3-2.8h1.2v2.9c0,0.4-0.3,0.8-0.8,0.8c-0.2,0-0.4-0.1-0.5-0.3
			C4.6,5.4,4.6,5.2,4.6,5z M1.9,4.9l0.6-2.7h1.2l-0.4,3c0,0.4-0.4,0.7-0.7,0.7C2.3,5.9,2.1,5.7,2,5.6C1.9,5.4,1.8,5.1,1.9,4.9z
			 M2.4,10.8V7.1c0,0,0.1,0,0.1,0c0.5,0,1-0.2,1.4-0.6c0.4,0.4,0.9,0.6,1.4,0.6c0.5,0,1-0.2,1.4-0.6c0.4,0.3,0.9,0.6,1.4,0.6
			c0.5,0,1-0.2,1.4-0.6c0.4,0.4,0.8,0.6,1.4,0.6c0,0,0.1,0,0.1,0v3.7H2.4z"/>
	</g>
</g>
<g>
	<g>
		<path d="M23.2,15.6l-0.6-2.7C22.4,12.4,22,12,21.4,12h-8.5c-0.6,0-1,0.4-1.2,0.9l-0.6,2.7c-0.1,0.6,0,1.3,0.4,1.8
			c0,0.1,0.1,0.1,0.2,0.2v4.3c0,0.7,0.6,1.2,1.2,1.2h8.6c0.7,0,1.2-0.6,1.2-1.2v-4.3c0.1-0.1,0.1-0.1,0.2-0.2
			C23.2,16.9,23.4,16.2,23.2,15.6z M21.4,13.2l0.6,2.7c0.1,0.3,0,0.5-0.2,0.7c-0.1,0.1-0.3,0.3-0.6,0.3c-0.4,0-0.7-0.3-0.7-0.7
			l-0.4-3L21.4,13.2z M17.8,13.2H19l0.3,2.8c0,0.2,0,0.5-0.2,0.7c-0.1,0.2-0.3,0.3-0.6,0.3c-0.4,0-0.7-0.4-0.7-0.8V13.2z M15,16
			l0.3-2.8h1.2v2.9c0,0.4-0.3,0.8-0.8,0.8c-0.2,0-0.4-0.1-0.5-0.3C15,16.5,15,16.2,15,16z M12.3,15.9l0.6-2.7h1.2l-0.4,3
			c0,0.4-0.4,0.7-0.7,0.7c-0.3,0-0.5-0.2-0.6-0.3C12.3,16.4,12.2,16.2,12.3,15.9z M12.9,21.8v-3.7c0,0,0.1,0,0.1,0
			c0.5,0,1-0.2,1.4-0.6c0.4,0.4,0.9,0.6,1.4,0.6c0.5,0,1-0.2,1.4-0.6c0.4,0.3,0.9,0.6,1.4,0.6c0.5,0,1-0.2,1.4-0.6
			c0.4,0.4,0.8,0.6,1.4,0.6c0,0,0.1,0,0.1,0v3.7H12.9z"/>
	</g>
</g>
</svg>
